<mxfile host="app.diagrams.net" modified="2023-04-09T08:54:55.677Z" agent="Mozilla/5.0 (Windows NT 10.0; Win64; x64) AppleWebKit/537.36 (KHTML, like Gecko) Chrome/111.0.0.0 Safari/537.36" version="21.1.5" etag="N4z69Xo_dut02n8JeBpT" type="github">
  <diagram name="페이지-1" id="tzeG9peZwrPjntXeYkpI">
    <mxGraphModel>
      <root>
        <mxCell id="0" />
        <mxCell id="1" parent="0" />
      </root>
    </mxGraphModel>
  </diagram>
</mxfile>
